PathFileType	4	(X/Y/Z)	G:\Shared drives\HPL_Drive\Nord Sprinting Study\Kristen_Nord_test\Trimmed_Nord000005.trc
DataRate	CameraRate	NumFrames	NumMarkers	Units	OrigDataRate	OrigDataStartFrame	OrigNumFrames
200.00	200.00	      4	52	mm	200.00	623	      2491
Frame#	Time	C7			R_Shoulder			L_Shoulder			Sternum			R_humerus			R_elbow_med			R_elbow_lat			R_forearm			R_wrist_radius			R_wrist_ulna			L_humerus			L_elbow_med			L_elbow_lat			L_forearm			L_wrist_radius			L_wrist_ulna			r.ASIS			r.PSIS			r_IC			L.ASIS			L.PSIS			l_IC			r_thigh1			r_thigh2			r_thigh3			r_thigh4			r_thigh5			r_knee			r_mknee			r_shank_antsup			r_sh2			r_sh3			r_sh4			r_ankle			r_mankle			r_calc			r_5meta			r_toe			L_thigh1			L_thigh2			L_thigh3			L_thigh4			L_knee			L_mknee			L_shank_antsup			L_sh2			L_sh3			L_ankle			L_mankle			L_calc			L_5meta			L_toe			
		X1	Y1	Z1	X2	Y2	Z2	X3	Y3	Z3	X4	Y4	Z4	X5	Y5	Z5	X6	Y6	Z6	X7	Y7	Z7	X8	Y8	Z8	X9	Y9	Z9	X10	Y10	Z10	X11	Y11	Z11	X12	Y12	Z12	X13	Y13	Z13	X14	Y14	Z14	X15	Y15	Z15	X16	Y16	Z16	X17	Y17	Z17	X18	Y18	Z18	X19	Y19	Z19	X20	Y20	Z20	X21	Y21	Z21	X22	Y22	Z22	X23	Y23	Z23	X24	Y24	Z24	X25	Y25	Z25	X26	Y26	Z26	X27	Y27	Z27	X28	Y28	Z28	X29	Y29	Z29	X30	Y30	Z30	X31	Y31	Z31	X32	Y32	Z32	X33	Y33	Z33	X34	Y34	Z34	X35	Y35	Z35	X36	Y36	Z36	X37	Y37	Z37	X38	Y38	Z38	X39	Y39	Z39	X40	Y40	Z40	X41	Y41	Z41	X42	Y42	Z42	X43	Y43	Z43	X44	Y44	Z44	X45	Y45	Z45	X46	Y46	Z46	X47	Y47	Z47	X48	Y48	Z48	X49	Y49	Z49	X50	Y50	Z50	X51	Y51	Z51	X52	Y52	Z52	

623	3.110	1202.42761	415.33325	1276.06946	1320.13525	461.39658	1277.49170	1068.23584	456.19785	1288.71558	1193.15479	545.29517	1230.69666	1495.35913	433.69260	1246.92383	1625.91077	465.57828	1165.61047	1620.93140	398.05011	1205.58411	1624.56787	450.88626	1325.08118	1603.27661	531.72528	1408.81396	1641.90369	507.49384	1422.89136	867.09711	417.07635	1257.45361	752.80322	454.77097	1179.65857	752.90271	386.83170	1217.27283	797.78162	453.97839	1342.47339	842.44226	521.99664	1402.66504	792.10748	503.97302	1422.71545	1312.67371	514.69055	755.42224	1270.43884	352.02322	858.00018	1350.03882	464.26224	854.04919	1073.44763	497.06876	753.34949	1153.70898	346.85422	851.90088	1050.77612	452.41400	842.92047	1380.22583	437.10577	513.48328	1378.06543	412.07562	401.04617	1392.37170	359.29150	383.74686	1392.20544	332.31311	539.89191	1370.70239	308.91476	423.64883	1377.30408	344.25659	304.94464	1250.89966	327.70822	317.51962	1393.81860	213.63441	311.06241	1373.61060	95.55374	321.55734	1388.41553	218.96402	387.39755	1370.80591	106.38037	403.45993	1352.19409	-67.13916	377.94101	1276.29968	-54.78063	344.09436	1293.39099	-86.37597	433.83768	1367.23401	-153.62091	285.66971	1333.58484	-131.20515	231.02817	1008.99731	423.79791	515.27185	1007.35693	393.74893	378.42087	1010.52344	308.35748	546.53345	1021.96136	284.10434	410.33206	997.95056	310.16983	331.57919	1123.50781	313.26807	303.53174	986.24713	198.10034	320.97006	1009.29175	210.89313	408.34262	1028.45239	92.09634	411.30426	1038.93176	-90.81889	386.58038	1106.74377	-62.82368	332.21490	1093.61426	-93.89254	432.07733	1035.55212	-180.56656	277.82025	1066.91895	-148.08998	221.28424	
624	3.115	1202.62891	415.76511	1275.87549	1320.19275	461.72525	1277.42639	1068.31409	456.45407	1288.65796	1193.06921	545.68097	1230.41553	1495.39746	434.05945	1246.90845	1625.93896	465.88791	1165.59814	1620.97144	398.39969	1205.60205	1624.65698	451.16534	1325.03662	1603.31885	532.16455	1408.74731	1641.90747	507.93640	1422.89355	867.19373	417.33243	1257.47461	752.85352	455.02267	1179.89807	752.99329	387.02875	1217.29504	797.91119	454.16275	1342.44128	842.52380	522.24066	1402.69373	792.21143	504.17426	1422.73047	1312.75696	514.85669	755.35889	1270.46667	352.21411	858.04761	1350.09167	464.41278	853.99750	1073.55017	497.27994	753.29767	1153.68579	347.09232	851.60217	1050.82898	452.63531	842.88226	1379.55713	436.69656	513.10486	1378.08044	412.05695	401.02133	1392.33752	359.25241	383.73648	1392.24573	332.36188	539.92651	1370.61584	308.73251	423.79309	1377.29724	344.24460	304.95908	1250.91150	327.63184	317.54877	1394.43555	213.69936	311.15594	1373.65833	95.53314	321.53238	1388.41846	218.93558	387.37021	1370.86816	106.28369	403.47711	1352.28638	-67.15348	377.95764	1276.36560	-54.85613	344.11008	1293.47839	-86.41903	433.85703	1367.38416	-153.65276	285.72278	1333.68323	-131.26775	231.04530	1009.05542	423.88379	515.22791	1007.41382	393.80862	378.38776	1010.53888	308.54300	546.58215	1021.90576	284.16113	410.33743	997.95703	310.22015	331.57471	1123.52014	313.30042	303.53891	986.25165	198.20885	320.97318	1009.19910	210.88472	408.32074	1028.24915	92.08128	411.29297	1038.65869	-90.80424	386.55981	1106.45129	-62.88714	332.22366	1093.24500	-93.93638	432.10049	1035.14587	-180.56535	277.82678	1066.63904	-148.13274	221.26120	
625	3.120	1202.53027	415.89612	1275.96436	1320.22681	462.02200	1277.40540	1068.39282	456.76718	1288.61804	1193.21216	545.98175	1230.50867	1495.45447	434.40918	1246.89050	1625.94714	466.22238	1165.59399	1621.06018	398.77670	1205.59741	1624.68848	451.55826	1325.02698	1603.34924	532.56476	1408.68225	1641.93005	508.37402	1422.84204	867.26849	417.60010	1257.46008	752.90326	455.17987	1179.66064	753.07135	387.24008	1217.30908	798.03430	454.38068	1342.48010	842.61194	522.39801	1402.67078	792.30676	504.37000	1422.76843	1312.85583	514.99139	755.27832	1270.53760	352.45578	858.03107	1350.14575	464.56680	853.95477	1073.63074	497.46774	753.25195	1153.69788	347.30853	851.64612	1050.90588	452.87488	842.85626	1379.61572	436.71002	513.06238	1378.08813	412.03214	400.98703	1392.35352	359.25278	383.70624	1392.24377	332.39520	539.91602	1370.63843	308.73605	423.79980	1377.27075	344.21255	304.96353	1250.91431	327.57745	317.53598	1394.35620	213.67845	311.11990	1373.68518	95.52338	321.51266	1388.47583	218.93002	387.36804	1370.90808	106.27010	403.47690	1352.36450	-67.14517	377.96188	1276.43042	-54.90895	344.08884	1293.54297	-86.48621	433.87741	1367.50171	-153.71556	285.74652	1333.81897	-131.31337	231.00775	1009.11151	423.97842	515.20990	1007.51593	393.86679	378.34827	1010.54047	308.60583	546.55609	1021.93719	284.24542	410.36020	997.93860	310.25278	331.58835	1123.50781	313.31378	303.53613	986.09644	198.19626	320.90152	1008.36383	211.11888	409.03323	1028.04810	92.10127	411.29114	1038.32349	-90.80813	386.55038	1106.12195	-62.92878	332.26004	1092.61523	-94.16567	431.65634	1034.92896	-180.88342	277.57773	1066.34253	-148.15556	221.23993	
626	3.125	1202.59802	416.14719	1275.89429	1320.24500	462.36356	1277.39014	1068.46655	457.04724	1288.58228	1193.16345	546.35522	1230.52295	1495.49146	434.72421	1246.89587	1625.96826	466.56564	1165.61243	1621.08545	399.06097	1205.62683	1624.71655	451.94247	1325.02722	1603.34778	533.00610	1408.63318	1641.93359	508.80276	1422.79468	867.36505	417.82404	1257.47266	752.97064	455.39777	1179.90686	753.16150	387.46225	1217.32153	798.11700	454.56323	1342.46777	842.69733	522.64185	1402.69800	792.39563	504.56104	1422.77234	1312.94287	515.11365	755.22937	1270.57092	352.64349	858.06445	1350.22852	464.73303	853.87006	1073.70776	497.64798	753.17267	1153.75073	347.50259	851.64429	1050.96814	453.09790	842.83472	1379.66211	436.71811	513.01825	1378.08899	412.05115	400.95883	1392.36584	359.20862	383.71417	1392.25232	332.39716	539.89496	1370.63196	308.70877	423.80338	1377.26721	344.19800	304.98145	1250.92773	327.56497	317.55463	1394.43225	213.68755	311.14722	1373.71521	95.49868	321.48257	1388.53821	218.92903	387.33075	1370.97314	106.27385	403.44885	1352.44202	-67.23751	377.97806	1276.50305	-54.94554	344.12973	1293.59717	-86.53912	433.91437	1367.63757	-153.71797	285.81915	1333.93701	-131.34349	231.06830	1009.14795	424.13934	515.21362	1007.53906	393.91205	378.35025	1010.56378	308.75995	546.55402	1021.90887	284.27240	410.39651	997.92731	310.26431	331.61520	1123.51794	313.31873	303.57645	986.03320	198.23936	320.99176	1008.98035	211.58003	408.28278	1027.86951	92.09058	411.32098	1037.99146	-90.79515	386.53433	1105.78760	-62.98333	332.29486	1092.24646	-94.18382	431.68079	1034.56934	-180.88037	277.57529	1066.01306	-148.17683	221.27480	
